<?xml version="1.0" encoding="UTF-8" standalone="no"?>
<!DOCTYPE svg PUBLIC "-//W3C//DTD SVG 1.1//EN"
 "http://www.w3.org/Graphics/SVG/1.1/DTD/svg11.dtd">
<!-- Generated by graphviz version 2.39.20141023.0445 (20141023.0445)
 -->
<!-- Title: %157 Pages: 1 -->
<svg width="870pt" height="260pt"
 viewBox="0.00 0.00 869.79 260.00" xmlns="http://www.w3.org/2000/svg" xmlns:xlink="http://www.w3.org/1999/xlink">
<g id="graph0" class="graph" transform="scale(1 1) rotate(0) translate(4 256)">
<title>%157</title>
<polygon fill="white" stroke="none" points="-4,4 -4,-256 865.788,-256 865.788,4 -4,4"/>
<!-- Program -->
<g id="node1" class="node"><title>Program</title>
<ellipse fill="none" stroke="black" cx="426.593" cy="-234" rx="42.4939" ry="18"/>
<text text-anchor="middle" x="426.593" y="-230.3" font-family="Times,serif" font-size="14.00">Program</text>
</g>
<!-- VariableDeclaration -->
<g id="node2" class="node"><title>VariableDeclaration</title>
<ellipse fill="none" stroke="black" cx="175.593" cy="-162" rx="84.485" ry="18"/>
<text text-anchor="middle" x="175.593" y="-158.3" font-family="Times,serif" font-size="14.00">VariableDeclaration</text>
</g>
<!-- Program&#45;&gt;VariableDeclaration -->
<g id="edge1" class="edge"><title>Program&#45;&gt;VariableDeclaration</title>
<path fill="none" stroke="black" d="M391.428,-223.913C351.163,-212.363 284.506,-193.242 235.904,-179.301"/>
<polygon fill="black" stroke="black" points="236.708,-175.89 226.131,-176.497 234.778,-182.619 236.708,-175.89"/>
</g>
<!-- IfStatement -->
<g id="node5" class="node"><title>IfStatement</title>
<ellipse fill="none" stroke="black" cx="426.593" cy="-162" rx="53.0913" ry="18"/>
<text text-anchor="middle" x="426.593" y="-158.3" font-family="Times,serif" font-size="14.00">IfStatement</text>
</g>
<!-- Program&#45;&gt;IfStatement -->
<g id="edge4" class="edge"><title>Program&#45;&gt;IfStatement</title>
<path fill="none" stroke="black" d="M426.593,-215.831C426.593,-208.131 426.593,-198.974 426.593,-190.417"/>
<polygon fill="black" stroke="black" points="430.093,-190.413 426.593,-180.413 423.093,-190.413 430.093,-190.413"/>
</g>
<!-- ReturnStatement -->
<g id="node13" class="node"><title>ReturnStatement</title>
<ellipse fill="none" stroke="black" cx="686.593" cy="-162" rx="72.2875" ry="18"/>
<text text-anchor="middle" x="686.593" y="-158.3" font-family="Times,serif" font-size="14.00">ReturnStatement</text>
</g>
<!-- Program&#45;&gt;ReturnStatement -->
<g id="edge12" class="edge"><title>Program&#45;&gt;ReturnStatement</title>
<path fill="none" stroke="black" d="M462.2,-224.14C504.966,-212.297 577.302,-192.265 628.263,-178.153"/>
<polygon fill="black" stroke="black" points="629.452,-181.455 638.156,-175.413 627.584,-174.709 629.452,-181.455"/>
</g>
<!-- VariableDeclarator -->
<g id="node3" class="node"><title>VariableDeclarator</title>
<ellipse fill="none" stroke="black" cx="80.5928" cy="-90" rx="80.6858" ry="18"/>
<text text-anchor="middle" x="80.5928" y="-86.3" font-family="Times,serif" font-size="14.00">VariableDeclarator</text>
</g>
<!-- VariableDeclaration&#45;&gt;VariableDeclarator -->
<g id="edge2" class="edge"><title>VariableDeclaration&#45;&gt;VariableDeclarator</title>
<path fill="none" stroke="black" d="M152.596,-144.571C140.227,-135.196 124.805,-123.508 111.41,-113.357"/>
<polygon fill="black" stroke="black" points="113.462,-110.52 103.378,-107.269 109.234,-116.098 113.462,-110.52"/>
</g>
<!-- id1 -->
<g id="node4" class="node"><title>id1</title>
<ellipse fill="none" stroke="black" cx="80.5928" cy="-18" rx="57.3905" ry="18"/>
<text text-anchor="middle" x="80.5928" y="-14.3" font-family="Times,serif" font-size="14.00">Identifier&lt;r&gt;</text>
</g>
<!-- VariableDeclarator&#45;&gt;id1 -->
<g id="edge3" class="edge"><title>VariableDeclarator&#45;&gt;id1</title>
<path fill="none" stroke="black" d="M80.5928,-71.8314C80.5928,-64.131 80.5928,-54.9743 80.5928,-46.4166"/>
<polygon fill="black" stroke="black" points="84.0929,-46.4132 80.5928,-36.4133 77.0929,-46.4133 84.0929,-46.4132"/>
</g>
<!-- SomeCondition -->
<g id="node6" class="node"><title>SomeCondition</title>
<ellipse fill="none" stroke="black" cx="246.593" cy="-90" rx="67.6881" ry="18"/>
<text text-anchor="middle" x="246.593" y="-86.3" font-family="Times,serif" font-size="14.00">SomeCondition</text>
</g>
<!-- IfStatement&#45;&gt;SomeCondition -->
<g id="edge5" class="edge"><title>IfStatement&#45;&gt;SomeCondition</title>
<path fill="none" stroke="black" d="M391.887,-148.118C364.048,-136.982 324.684,-121.236 293.949,-108.943"/>
<polygon fill="black" stroke="black" points="294.884,-105.547 284.299,-105.083 292.284,-112.046 294.884,-105.547"/>
</g>
<!-- AssignmentExpression1 -->
<g id="node7" class="node"><title>AssignmentExpression1</title>
<ellipse fill="none" stroke="black" cx="426.593" cy="-90" rx="94.7833" ry="18"/>
<text text-anchor="middle" x="426.593" y="-86.3" font-family="Times,serif" font-size="14.00">AssignmentExpression</text>
</g>
<!-- IfStatement&#45;&gt;AssignmentExpression1 -->
<g id="edge6" class="edge"><title>IfStatement&#45;&gt;AssignmentExpression1</title>
<path fill="none" stroke="black" d="M426.593,-143.831C426.593,-136.131 426.593,-126.974 426.593,-118.417"/>
<polygon fill="black" stroke="black" points="430.093,-118.413 426.593,-108.413 423.093,-118.413 430.093,-118.413"/>
</g>
<!-- AssignmentExpression2 -->
<g id="node10" class="node"><title>AssignmentExpression2</title>
<ellipse fill="none" stroke="black" cx="634.593" cy="-90" rx="94.7833" ry="18"/>
<text text-anchor="middle" x="634.593" y="-86.3" font-family="Times,serif" font-size="14.00">AssignmentExpression</text>
</g>
<!-- IfStatement&#45;&gt;AssignmentExpression2 -->
<g id="edge9" class="edge"><title>IfStatement&#45;&gt;AssignmentExpression2</title>
<path fill="none" stroke="black" d="M464.26,-148.961C496.393,-137.839 543.024,-121.697 579.376,-109.114"/>
<polygon fill="black" stroke="black" points="580.552,-112.41 588.857,-105.832 578.262,-105.795 580.552,-112.41"/>
</g>
<!-- ida1 -->
<g id="node8" class="node"><title>ida1</title>
<ellipse fill="none" stroke="black" cx="322.593" cy="-18" rx="57.3905" ry="18"/>
<text text-anchor="middle" x="322.593" y="-14.3" font-family="Times,serif" font-size="14.00">Identifier&lt;r&gt;</text>
</g>
<!-- AssignmentExpression1&#45;&gt;ida1 -->
<g id="edge7" class="edge"><title>AssignmentExpression1&#45;&gt;ida1</title>
<path fill="none" stroke="black" d="M401.417,-72.5708C387.447,-62.8991 369.92,-50.7648 354.942,-40.3958"/>
<polygon fill="black" stroke="black" points="356.679,-37.3412 346.465,-34.5267 352.694,-43.0965 356.679,-37.3412"/>
</g>
<!-- one -->
<g id="node9" class="node"><title>one</title>
<ellipse fill="none" stroke="black" cx="447.593" cy="-18" rx="50.0912" ry="18"/>
<text text-anchor="middle" x="447.593" y="-14.3" font-family="Times,serif" font-size="14.00">Literal&lt;1&gt;</text>
</g>
<!-- AssignmentExpression1&#45;&gt;one -->
<g id="edge8" class="edge"><title>AssignmentExpression1&#45;&gt;one</title>
<path fill="none" stroke="black" d="M431.892,-71.8314C434.198,-63.9266 436.951,-54.4872 439.503,-45.7365"/>
<polygon fill="black" stroke="black" points="442.928,-46.4934 442.368,-35.9134 436.208,-44.5334 442.928,-46.4934"/>
</g>
<!-- ida2 -->
<g id="node11" class="node"><title>ida2</title>
<ellipse fill="none" stroke="black" cx="613.593" cy="-18" rx="57.3905" ry="18"/>
<text text-anchor="middle" x="613.593" y="-14.3" font-family="Times,serif" font-size="14.00">Identifier&lt;r&gt;</text>
</g>
<!-- AssignmentExpression2&#45;&gt;ida2 -->
<g id="edge10" class="edge"><title>AssignmentExpression2&#45;&gt;ida2</title>
<path fill="none" stroke="black" d="M629.294,-71.8314C627.023,-64.0463 624.318,-54.7729 621.799,-46.1347"/>
<polygon fill="black" stroke="black" points="625.123,-45.0332 618.963,-36.4133 618.403,-46.9933 625.123,-45.0332"/>
</g>
<!-- two -->
<g id="node12" class="node"><title>two</title>
<ellipse fill="none" stroke="black" cx="738.593" cy="-18" rx="50.0912" ry="18"/>
<text text-anchor="middle" x="738.593" y="-14.3" font-family="Times,serif" font-size="14.00">Literal&lt;2&gt;</text>
</g>
<!-- AssignmentExpression2&#45;&gt;two -->
<g id="edge11" class="edge"><title>AssignmentExpression2&#45;&gt;two</title>
<path fill="none" stroke="black" d="M659.768,-72.5708C673.94,-62.7599 691.771,-50.4151 706.888,-39.9494"/>
<polygon fill="black" stroke="black" points="709.197,-42.6076 715.427,-34.0378 705.213,-36.8523 709.197,-42.6076"/>
</g>
<!-- idr1 -->
<g id="node14" class="node"><title>idr1</title>
<ellipse fill="none" stroke="black" cx="804.593" cy="-90" rx="57.3905" ry="18"/>
<text text-anchor="middle" x="804.593" y="-86.3" font-family="Times,serif" font-size="14.00">Identifier&lt;r&gt;</text>
</g>
<!-- ReturnStatement&#45;&gt;idr1 -->
<g id="edge13" class="edge"><title>ReturnStatement&#45;&gt;idr1</title>
<path fill="none" stroke="black" d="M713.961,-145.301C730.426,-135.254 751.558,-122.36 769.275,-111.55"/>
<polygon fill="black" stroke="black" points="771.471,-114.31 778.185,-106.113 767.825,-108.334 771.471,-114.31"/>
</g>
</g>
</svg>
