<?xml version="1.0" encoding="UTF-8" standalone="no"?>
<!DOCTYPE svg PUBLIC "-//W3C//DTD SVG 1.1//EN"
 "http://www.w3.org/Graphics/SVG/1.1/DTD/svg11.dtd">
<!-- Generated by graphviz version 2.39.20141023.0445 (20141023.0445)
 -->
<!-- Title: %85 Pages: 1 -->
<svg width="236pt" height="224pt"
 viewBox="0.00 0.00 236.00 224.00" xmlns="http://www.w3.org/2000/svg" xmlns:xlink="http://www.w3.org/1999/xlink">
<g id="graph0" class="graph" transform="scale(1 1) rotate(0) translate(4 220)">
<title>%85</title>
<polygon fill="white" stroke="none" points="-4,4 -4,-220 232,-220 232,4 -4,4"/>
<!-- B1 -->
<g id="node1" class="node"><title>B1</title>
<polygon fill="none" stroke="black" points="86.5,-179.5 86.5,-215.5 140.5,-215.5 140.5,-179.5 86.5,-179.5"/>
<text text-anchor="middle" x="113.5" y="-193.8" font-family="Times,serif" font-size="14.00">......</text>
</g>
<!-- B2 -->
<g id="node2" class="node"><title>B2</title>
<polygon fill="none" stroke="black" points="0,-73.5 0,-142.5 105,-142.5 105,-73.5 0,-73.5"/>
<text text-anchor="middle" x="52.5" y="-127.3" font-family="Times,serif" font-size="14.00">...</text>
<polyline fill="none" stroke="black" points="0,-119.5 105,-119.5 "/>
<text text-anchor="middle" x="52.5" y="-104.3" font-family="Times,serif" font-size="14.00">@a = literal %1</text>
<polyline fill="none" stroke="black" points="0,-96.5 105,-96.5 "/>
<text text-anchor="middle" x="52.5" y="-81.3" font-family="Times,serif" font-size="14.00">...</text>
</g>
<!-- B1&#45;&gt;B2 -->
<g id="edge1" class="edge"><title>B1&#45;&gt;B2</title>
<path fill="none" stroke="black" d="M101.156,-179.388C95.553,-171.168 88.6651,-161.062 81.8535,-151.068"/>
<polygon fill="black" stroke="black" points="84.7038,-149.035 76.1797,-142.743 78.9195,-152.978 84.7038,-149.035"/>
</g>
<!-- B3 -->
<g id="node3" class="node"><title>B3</title>
<polygon fill="none" stroke="black" points="123,-73.5 123,-142.5 228,-142.5 228,-73.5 123,-73.5"/>
<text text-anchor="middle" x="175.5" y="-127.3" font-family="Times,serif" font-size="14.00">...</text>
<polyline fill="none" stroke="black" points="123,-119.5 228,-119.5 "/>
<text text-anchor="middle" x="175.5" y="-104.3" font-family="Times,serif" font-size="14.00">@a = literal %2</text>
<polyline fill="none" stroke="black" points="123,-96.5 228,-96.5 "/>
<text text-anchor="middle" x="175.5" y="-81.3" font-family="Times,serif" font-size="14.00">...</text>
</g>
<!-- B1&#45;&gt;B3 -->
<g id="edge2" class="edge"><title>B1&#45;&gt;B3</title>
<path fill="none" stroke="black" d="M126.047,-179.388C131.741,-171.168 138.742,-161.062 145.665,-151.068"/>
<polygon fill="black" stroke="black" points="148.615,-152.957 151.432,-142.743 142.86,-148.97 148.615,-152.957"/>
</g>
<!-- B4 -->
<g id="node4" class="node"><title>B4</title>
<polygon fill="none" stroke="black" points="86.5,-0.5 86.5,-36.5 140.5,-36.5 140.5,-0.5 86.5,-0.5"/>
<text text-anchor="middle" x="113.5" y="-14.8" font-family="Times,serif" font-size="14.00">ret @a</text>
</g>
<!-- B2&#45;&gt;B4 -->
<g id="edge3" class="edge"><title>B2&#45;&gt;B4</title>
<path fill="none" stroke="black" d="M76.0842,-73.397C82.5212,-63.9525 89.3921,-53.8715 95.4662,-44.9595"/>
<polygon fill="black" stroke="black" points="98.4893,-46.7385 101.229,-36.504 92.705,-42.7961 98.4893,-46.7385"/>
</g>
<!-- B3&#45;&gt;B4 -->
<g id="edge4" class="edge"><title>B3&#45;&gt;B4</title>
<path fill="none" stroke="black" d="M151.529,-73.397C144.987,-63.9525 138.003,-53.8715 131.829,-44.9595"/>
<polygon fill="black" stroke="black" points="134.544,-42.7312 125.972,-36.504 128.789,-46.7174 134.544,-42.7312"/>
</g>
</g>
</svg>
