<?xml version="1.0" encoding="UTF-8" standalone="no"?>
<!DOCTYPE svg PUBLIC "-//W3C//DTD SVG 1.1//EN"
 "http://www.w3.org/Graphics/SVG/1.1/DTD/svg11.dtd">
<!-- Generated by graphviz version 2.39.20141023.0445 (20141023.0445)
 -->
<!-- Title: %57 Pages: 1 -->
<svg width="298pt" height="211pt"
 viewBox="0.00 0.00 298.00 211.00" xmlns="http://www.w3.org/2000/svg" xmlns:xlink="http://www.w3.org/1999/xlink">
<g id="graph0" class="graph" transform="scale(1 1) rotate(0) translate(4 207)">
<title>%57</title>
<polygon fill="white" stroke="none" points="-4,4 -4,-207 294,-207 294,4 -4,4"/>
<!-- B1 -->
<g id="node1" class="node"><title>B1</title>
<polygon fill="none" stroke="black" points="60.5,-166.5 60.5,-202.5 229.5,-202.5 229.5,-166.5 60.5,-166.5"/>
<text text-anchor="middle" x="145" y="-180.8" font-family="Times,serif" font-size="14.00">i5 = branch someCondition</text>
</g>
<!-- B2 -->
<g id="node2" class="node"><title>B2</title>
<polygon fill="none" stroke="black" points="0,-83.5 0,-129.5 136,-129.5 136,-83.5 0,-83.5"/>
<text text-anchor="middle" x="68" y="-114.3" font-family="Times,serif" font-size="14.00">ssa/1/r = literal %1</text>
<polyline fill="none" stroke="black" points="0,-106.5 136,-106.5 "/>
<text text-anchor="middle" x="68" y="-91.3" font-family="Times,serif" font-size="14.00">to_phi ssa/2/r, ssa/1/r</text>
</g>
<!-- B1&#45;&gt;B2 -->
<g id="edge1" class="edge"><title>B1&#45;&gt;B2</title>
<path fill="none" stroke="black" stroke-dasharray="5,2" d="M127.141,-166.409C118.418,-157.573 107.688,-146.704 97.7732,-136.66"/>
<polygon fill="black" stroke="black" points="100.254,-134.191 90.738,-129.533 95.2726,-139.109 100.254,-134.191"/>
</g>
<!-- B3 -->
<g id="node3" class="node"><title>B3</title>
<polygon fill="none" stroke="black" points="154,-83.5 154,-129.5 290,-129.5 290,-83.5 154,-83.5"/>
<text text-anchor="middle" x="222" y="-114.3" font-family="Times,serif" font-size="14.00">ssa/3/r = literal %2</text>
<polyline fill="none" stroke="black" points="154,-106.5 290,-106.5 "/>
<text text-anchor="middle" x="222" y="-91.3" font-family="Times,serif" font-size="14.00">to_phi ssa/2/r, ssa/3/r</text>
</g>
<!-- B1&#45;&gt;B3 -->
<g id="edge2" class="edge"><title>B1&#45;&gt;B3</title>
<path fill="none" stroke="black" stroke-dasharray="5,2" d="M162.859,-166.409C171.582,-157.573 182.312,-146.704 192.227,-136.66"/>
<polygon fill="black" stroke="black" points="194.727,-139.109 199.262,-129.533 189.746,-134.191 194.727,-139.109"/>
</g>
<!-- B2&#45;&gt;B2 -->
<g id="edge5" class="edge"><title>B2:s1&#45;&gt;B2:s2</title>
<path fill="none" stroke="red" d="M71.7734,-129.563C76.7461,-148.462 75.4883,-169 68,-169 61.4158,-169 59.6484,-140.277 62.698,-116.7"/>
<polygon fill="red" stroke="red" points="66.1762,-117.12 64.3683,-106.681 59.2715,-115.969 66.1762,-117.12"/>
</g>
<!-- B4 -->
<g id="node4" class="node"><title>B4</title>
<polygon fill="none" stroke="black" points="93,-0.5 93,-46.5 197,-46.5 197,-0.5 93,-0.5"/>
<text text-anchor="middle" x="145" y="-31.3" font-family="Times,serif" font-size="14.00">ssa/2/r = phi</text>
<polyline fill="none" stroke="black" points="93,-23.5 197,-23.5 "/>
<text text-anchor="middle" x="145" y="-8.3" font-family="Times,serif" font-size="14.00">i11 = ret ssa/2/r</text>
</g>
<!-- B2&#45;&gt;B4 -->
<g id="edge3" class="edge"><title>B2&#45;&gt;B4</title>
<path fill="none" stroke="black" stroke-dasharray="5,2" d="M89.4488,-83.3799C97.8056,-74.3718 107.506,-63.916 116.439,-54.2863"/>
<polygon fill="black" stroke="black" points="119.164,-56.4955 123.399,-46.784 114.032,-51.7347 119.164,-56.4955"/>
</g>
<!-- B2&#45;&gt;B4 -->
<g id="edge6" class="edge"><title>B2:s2&#45;&gt;B4:s2</title>
<path fill="none" stroke="red" d="M136,-94.5C159.955,-94.5 107.416,-62.3415 91.3308,-45.5085"/>
<polygon fill="red" stroke="red" points="94.8072,-45.9396 93,-35.5 87.9026,-44.788 94.8072,-45.9396"/>
</g>
<!-- B3&#45;&gt;B3 -->
<g id="edge7" class="edge"><title>B3:s3&#45;&gt;B3:s2</title>
<path fill="none" stroke="red" d="M225.773,-129.563C230.746,-148.462 229.488,-169 222,-169 215.416,-169 213.648,-140.277 216.698,-116.7"/>
<polygon fill="red" stroke="red" points="220.176,-117.12 218.368,-106.681 213.271,-115.969 220.176,-117.12"/>
</g>
<!-- B3&#45;&gt;B4 -->
<g id="edge4" class="edge"><title>B3&#45;&gt;B4</title>
<path fill="none" stroke="black" stroke-dasharray="5,2" d="M200.551,-83.3799C192.194,-74.3718 182.494,-63.916 173.561,-54.2863"/>
<polygon fill="black" stroke="black" points="175.968,-51.7347 166.601,-46.784 170.836,-56.4955 175.968,-51.7347"/>
</g>
<!-- B3&#45;&gt;B4 -->
<g id="edge8" class="edge"><title>B3:s2&#45;&gt;B4:s2</title>
<path fill="none" stroke="red" d="M154,-94.5C130.045,-94.5 182.584,-62.3415 198.669,-45.5085"/>
<polygon fill="red" stroke="red" points="202.097,-44.788 197,-35.5 195.193,-45.9396 202.097,-44.788"/>
</g>
</g>
</svg>
