<?xml version="1.0" encoding="UTF-8" standalone="no"?>
<!DOCTYPE svg PUBLIC "-//W3C//DTD SVG 1.1//EN"
 "http://www.w3.org/Graphics/SVG/1.1/DTD/svg11.dtd">
<!-- Generated by graphviz version 2.39.20141023.0445 (20141023.0445)
 -->
<!-- Title: %181 Pages: 1 -->
<svg width="306pt" height="616pt"
 viewBox="0.00 0.00 305.58 616.00" xmlns="http://www.w3.org/2000/svg" xmlns:xlink="http://www.w3.org/1999/xlink">
<g id="graph0" class="graph" transform="scale(1 1) rotate(0) translate(4 612)">
<title>%181</title>
<polygon fill="white" stroke="none" points="-4,4 -4,-612 301.58,-612 301.58,4 -4,4"/>
<!-- B0 -->
<g id="node1" class="node"><title>B0</title>
<polygon fill="none" stroke="black" points="170,-469.5 170,-607.5 269,-607.5 269,-469.5 170,-469.5"/>
<text text-anchor="middle" x="219.5" y="-592.3" font-family="Times,serif" font-size="14.00">B0</text>
<polyline fill="none" stroke="black" points="170,-584.5 269,-584.5 "/>
<text text-anchor="middle" x="219.5" y="-569.3" font-family="Times,serif" font-size="14.00">arr = array</text>
<polyline fill="none" stroke="black" points="170,-561.5 269,-561.5 "/>
<text text-anchor="middle" x="219.5" y="-546.3" font-family="Times,serif" font-size="14.00">c0 = literal %0</text>
<polyline fill="none" stroke="black" points="170,-538.5 269,-538.5 "/>
<text text-anchor="middle" x="219.5" y="-523.3" font-family="Times,serif" font-size="14.00">c1 = literal %0</text>
<polyline fill="none" stroke="black" points="170,-515.5 269,-515.5 "/>
<text text-anchor="middle" x="219.5" y="-500.3" font-family="Times,serif" font-size="14.00">to_phi p0, c0</text>
<polyline fill="none" stroke="black" points="170,-492.5 269,-492.5 "/>
<text text-anchor="middle" x="219.5" y="-477.3" font-family="Times,serif" font-size="14.00">to_phi p1, c1</text>
</g>
<!-- B1 -->
<g id="node2" class="node"><title>B1</title>
<polygon fill="none" stroke="black" points="144,-271.5 144,-432.5 295,-432.5 295,-271.5 144,-271.5"/>
<text text-anchor="middle" x="219.5" y="-417.3" font-family="Times,serif" font-size="14.00">B1</text>
<polyline fill="none" stroke="black" points="144,-409.5 295,-409.5 "/>
<text text-anchor="middle" x="219.5" y="-394.3" font-family="Times,serif" font-size="14.00">p0 = phi</text>
<polyline fill="none" stroke="black" points="144,-386.5 295,-386.5 "/>
<text text-anchor="middle" x="219.5" y="-371.3" font-family="Times,serif" font-size="14.00">p1 = phi</text>
<polyline fill="none" stroke="black" points="144,-363.5 295,-363.5 "/>
<text text-anchor="middle" x="219.5" y="-348.3" font-family="Times,serif" font-size="14.00">v1 = literal %&#39;length&#39;</text>
<polyline fill="none" stroke="black" points="144,-340.5 295,-340.5 "/>
<text text-anchor="middle" x="219.5" y="-325.3" font-family="Times,serif" font-size="14.00">v2 = getProperty arr, v1</text>
<polyline fill="none" stroke="black" points="144,-317.5 295,-317.5 "/>
<text text-anchor="middle" x="219.5" y="-302.3" font-family="Times,serif" font-size="14.00">v4 = compare v2, p0</text>
<polyline fill="none" stroke="black" points="144,-294.5 295,-294.5 "/>
<text text-anchor="middle" x="219.5" y="-279.3" font-family="Times,serif" font-size="14.00">branch v4</text>
</g>
<!-- B0&#45;&gt;B1 -->
<g id="edge1" class="edge"><title>B0&#45;&gt;B1</title>
<path fill="none" stroke="black" d="M219.5,-469.319C219.5,-460.658 219.5,-451.699 219.5,-442.77"/>
<polygon fill="black" stroke="black" points="223,-442.72 219.5,-432.72 216,-442.72 223,-442.72"/>
</g>
<!-- B2 -->
<g id="node3" class="node"><title>B2</title>
<polygon fill="none" stroke="black" points="0,-73.5 0,-234.5 151,-234.5 151,-73.5 0,-73.5"/>
<text text-anchor="middle" x="75.5" y="-219.3" font-family="Times,serif" font-size="14.00">B2</text>
<polyline fill="none" stroke="black" points="0,-211.5 151,-211.5 "/>
<text text-anchor="middle" x="75.5" y="-196.3" font-family="Times,serif" font-size="14.00">v5 = literal %1</text>
<polyline fill="none" stroke="black" points="0,-188.5 151,-188.5 "/>
<text text-anchor="middle" x="75.5" y="-173.3" font-family="Times,serif" font-size="14.00">v6 = binary %, p0, v5</text>
<polyline fill="none" stroke="black" points="0,-165.5 151,-165.5 "/>
<text text-anchor="middle" x="75.5" y="-150.3" font-family="Times,serif" font-size="14.00">v7 = literal %&#39;length&#39;</text>
<polyline fill="none" stroke="black" points="0,-142.5 151,-142.5 "/>
<text text-anchor="middle" x="75.5" y="-127.3" font-family="Times,serif" font-size="14.00">v8 = getProperty arr, v7</text>
<polyline fill="none" stroke="black" points="0,-119.5 151,-119.5 "/>
<text text-anchor="middle" x="75.5" y="-104.3" font-family="Times,serif" font-size="14.00">to_phi p0, v6</text>
<polyline fill="none" stroke="black" points="0,-96.5 151,-96.5 "/>
<text text-anchor="middle" x="75.5" y="-81.3" font-family="Times,serif" font-size="14.00">to_phi p1, v8</text>
</g>
<!-- B1&#45;&gt;B2 -->
<g id="edge2" class="edge"><title>B1&#45;&gt;B2</title>
<path fill="none" stroke="black" d="M160.93,-271.466C154.124,-262.108 147.153,-252.523 140.271,-243.06"/>
<polygon fill="black" stroke="black" points="142.964,-240.813 134.252,-234.784 137.303,-244.93 142.964,-240.813"/>
</g>
<!-- B3 -->
<g id="node5" class="node"><title>B3</title>
<polygon fill="none" stroke="black" points="169,-119.5 169,-188.5 270,-188.5 270,-119.5 169,-119.5"/>
<text text-anchor="middle" x="219.5" y="-173.3" font-family="Times,serif" font-size="14.00">B3</text>
<polyline fill="none" stroke="black" points="169,-165.5 270,-165.5 "/>
<text text-anchor="middle" x="219.5" y="-150.3" font-family="Times,serif" font-size="14.00">t0 = add p0, p1</text>
<polyline fill="none" stroke="black" points="169,-142.5 270,-142.5 "/>
<text text-anchor="middle" x="219.5" y="-127.3" font-family="Times,serif" font-size="14.00">ret t0</text>
</g>
<!-- B1&#45;&gt;B3 -->
<g id="edge4" class="edge"><title>B1&#45;&gt;B3</title>
<path fill="none" stroke="black" d="M219.5,-271.466C219.5,-246.623 219.5,-220.173 219.5,-198.673"/>
<polygon fill="black" stroke="black" points="223,-198.546 219.5,-188.546 216,-198.546 223,-198.546"/>
</g>
<!-- B4 -->
<g id="node4" class="node"><title>B4</title>
<polygon fill="none" stroke="black" points="159.5,-0.5 159.5,-36.5 213.5,-36.5 213.5,-0.5 159.5,-0.5"/>
<text text-anchor="middle" x="186.5" y="-14.8" font-family="Times,serif" font-size="14.00">B4</text>
</g>
<!-- B2&#45;&gt;B4 -->
<g id="edge3" class="edge"><title>B2&#45;&gt;B4</title>
<path fill="none" stroke="black" d="M141.672,-73.2225C150.029,-63.0208 158.051,-53.2287 164.94,-44.8191"/>
<polygon fill="black" stroke="black" points="167.792,-46.8601 171.422,-36.9063 162.377,-42.4241 167.792,-46.8601"/>
</g>
<!-- B4&#45;&gt;B1 -->
<g id="edge5" class="edge"><title>B4&#45;&gt;B1</title>
<path fill="none" stroke="black" d="M213.511,-26.1105C235.619,-33.9263 265.45,-48.4821 279.5,-73 312.576,-130.721 294.448,-204.648 269.73,-261.9"/>
<polygon fill="black" stroke="black" points="266.415,-260.742 265.549,-271.301 272.811,-263.587 266.415,-260.742"/>
</g>
</g>
</svg>
