<?xml version="1.0" encoding="UTF-8" standalone="no"?>
<!DOCTYPE svg PUBLIC "-//W3C//DTD SVG 1.1//EN"
 "http://www.w3.org/Graphics/SVG/1.1/DTD/svg11.dtd">
<!-- Generated by graphviz version 2.39.20141023.0445 (20141023.0445)
 -->
<!-- Title: %13 Pages: 1 -->
<svg width="224pt" height="234pt"
 viewBox="0.00 0.00 224.00 234.00" xmlns="http://www.w3.org/2000/svg" xmlns:xlink="http://www.w3.org/1999/xlink">
<g id="graph0" class="graph" transform="scale(1 1) rotate(0) translate(4 230)">
<title>%13</title>
<polygon fill="white" stroke="none" points="-4,4 -4,-230 220,-230 220,4 -4,4"/>
<!-- B1 -->
<g id="node1" class="node"><title>B1</title>
<polygon fill="none" stroke="black" points="80.5,-189.5 80.5,-225.5 134.5,-225.5 134.5,-189.5 80.5,-189.5"/>
<text text-anchor="middle" x="107.5" y="-203.8" font-family="Times,serif" font-size="14.00">......</text>
</g>
<!-- B2 -->
<g id="node2" class="node"><title>B2</title>
<polygon fill="none" stroke="black" points="0,-83.5 0,-152.5 99,-152.5 99,-83.5 0,-83.5"/>
<text text-anchor="middle" x="49.5" y="-137.3" font-family="Times,serif" font-size="14.00">...</text>
<polyline fill="none" stroke="black" points="0,-129.5 99,-129.5 "/>
<text text-anchor="middle" x="49.5" y="-114.3" font-family="Times,serif" font-size="14.00">a1 = literal %1</text>
<polyline fill="none" stroke="black" points="0,-106.5 99,-106.5 "/>
<text text-anchor="middle" x="49.5" y="-91.3" font-family="Times,serif" font-size="14.00">...</text>
</g>
<!-- B1&#45;&gt;B2 -->
<g id="edge1" class="edge"><title>B1&#45;&gt;B2</title>
<path fill="none" stroke="black" d="M95.7628,-189.388C90.4889,-181.25 84.0173,-171.264 77.6042,-161.368"/>
<polygon fill="black" stroke="black" points="80.3907,-159.232 72.0151,-152.743 74.5163,-163.039 80.3907,-159.232"/>
</g>
<!-- B3 -->
<g id="node3" class="node"><title>B3</title>
<polygon fill="none" stroke="black" points="117,-83.5 117,-152.5 216,-152.5 216,-83.5 117,-83.5"/>
<text text-anchor="middle" x="166.5" y="-137.3" font-family="Times,serif" font-size="14.00">...</text>
<polyline fill="none" stroke="black" points="117,-129.5 216,-129.5 "/>
<text text-anchor="middle" x="166.5" y="-114.3" font-family="Times,serif" font-size="14.00">a3 = literal %2</text>
<polyline fill="none" stroke="black" points="117,-106.5 216,-106.5 "/>
<text text-anchor="middle" x="166.5" y="-91.3" font-family="Times,serif" font-size="14.00">...</text>
</g>
<!-- B1&#45;&gt;B3 -->
<g id="edge2" class="edge"><title>B1&#45;&gt;B3</title>
<path fill="none" stroke="black" d="M119.44,-189.388C124.804,-181.25 131.388,-171.264 137.911,-161.368"/>
<polygon fill="black" stroke="black" points="141.015,-163.019 143.597,-152.743 135.171,-159.166 141.015,-163.019"/>
</g>
<!-- B4 -->
<g id="node4" class="node"><title>B4</title>
<polygon fill="none" stroke="black" points="55,-0.5 55,-46.5 160,-46.5 160,-0.5 55,-0.5"/>
<text text-anchor="middle" x="107.5" y="-31.3" font-family="Times,serif" font-size="14.00">a2 = phi(a1, a3)</text>
<polyline fill="none" stroke="black" points="55,-23.5 160,-23.5 "/>
<text text-anchor="middle" x="107.5" y="-8.3" font-family="Times,serif" font-size="14.00">ret a2</text>
</g>
<!-- B2&#45;&gt;B4 -->
<g id="edge3" class="edge"><title>B2&#45;&gt;B4</title>
<path fill="none" stroke="black" d="M70.7677,-83.3483C76.3932,-74.1826 82.4375,-64.3346 87.9662,-55.3267"/>
<polygon fill="black" stroke="black" points="91.0404,-57.0087 93.2884,-46.6551 85.0745,-53.3471 91.0404,-57.0087"/>
</g>
<!-- B3&#45;&gt;B4 -->
<g id="edge4" class="edge"><title>B3&#45;&gt;B4</title>
<path fill="none" stroke="black" d="M144.866,-83.3483C139.143,-74.1826 132.995,-64.3346 127.371,-55.3267"/>
<polygon fill="black" stroke="black" points="130.222,-53.284 121.957,-46.6551 124.284,-56.9912 130.222,-53.284"/>
</g>
</g>
</svg>
